<?xml version="1.0" standalone="no"?>
<!DOCTYPE svg PUBLIC "-//W3C//DTD SVG 20010904//EN"
 "http://www.w3.org/TR/2001/REC-SVG-20010904/DTD/svg10.dtd">
<svg version="1.0" xmlns="http://www.w3.org/2000/svg"
 width="700.000000pt" height="700.000000pt" viewBox="0 0 700.000000 700.000000"
 preserveAspectRatio="xMidYMid meet">
<metadata>
Created by potrace 1.14, written by Peter Selinger 2001-2017
</metadata>
<g transform="translate(0.000000,700.000000) scale(0.100000,-0.100000)"
fill="#000000" stroke="none">
<path d="M75 6990 c-11 -4 -31 -20 -45 -35 l-25 -27 0 -3429 0 -3429 33 -32
32 -33 3430 0 3430 0 32 33 33 32 0 3430 0 3430 -33 32 -32 33 -3418 2 c-1879
1 -3426 -2 -3437 -7z m2143 -921 c79 -39 120 -138 92 -225 -10 -32 -128 -155
-611 -639 l-599 -600 591 -590 c399 -399 597 -603 610 -630 70 -151 -78 -311
-234 -251 -34 13 -176 149 -719 693 -376 377 -682 691 -687 706 -14 36 -14
108 0 144 13 35 1341 1367 1389 1393 47 26 113 25 168 -1z m2680 6 c42 -18
1323 -1290 1371 -1363 36 -53 45 -100 31 -154 -10 -38 -85 -117 -693 -727
-394 -395 -696 -689 -714 -697 -138 -60 -287 70 -253 220 12 50 26 65 611 651
l599 600 -581 580 c-319 319 -591 598 -604 620 -31 54 -38 95 -25 144 30 111
151 170 258 126z m-1219 -490 c336 -64 644 -275 913 -625 118 -154 208 -307
208 -355 0 -82 -222 -397 -411 -583 -201 -197 -407 -320 -646 -383 -123 -33
-347 -37 -483 -9 -359 73 -694 320 -963 711 -166 240 -170 258 -78 409 273
452 655 757 1047 834 96 19 313 20 413 1z m1211 -3740 l0 -775 -180 0 -180 0
0 76 0 77 -55 -52 c-30 -29 -85 -66 -122 -84 -64 -30 -74 -32 -183 -32 -92 1
-126 5 -172 22 -151 56 -271 192 -324 368 -29 93 -27 335 3 430 27 85 79 175
136 233 182 187 482 199 667 26 l50 -47 0 267 0 266 180 0 180 0 0 -775z
m-3195 690 c214 -56 393 -215 470 -419 14 -37 25 -69 25 -71 0 -3 -89 -5 -198
-5 l-199 0 -31 48 c-59 91 -147 135 -272 136 -121 1 -179 -21 -256 -98 -92
-92 -109 -143 -109 -322 l0 -140 38 -76 c67 -137 169 -200 323 -201 67 0 91 5
140 27 63 29 126 83 150 129 l15 27 200 0 200 0 -6 -22 c-3 -13 -26 -65 -51
-116 -129 -265 -396 -400 -735 -370 -294 26 -522 209 -615 493 -21 64 -27 106
-31 211 -7 172 11 263 78 401 40 84 63 116 122 175 108 108 235 176 382 204
87 17 277 11 360 -11z m1419 -301 c159 -41 296 -152 365 -297 48 -101 61 -161
61 -285 0 -120 -19 -204 -67 -294 -69 -133 -176 -221 -328 -275 -72 -25 -93
-28 -215 -27 -120 0 -144 3 -216 27 -145 48 -260 148 -328 283 -43 86 -60 168
-60 294 1 102 4 125 30 200 76 217 241 354 469 390 76 11 211 4 289 -16z
m2705 5 c203 -49 362 -215 406 -424 15 -71 20 -210 9 -239 -5 -14 -51 -16
-410 -16 l-403 0 6 -32 c17 -89 81 -160 161 -177 90 -19 158 2 214 69 l35 40
186 0 c117 0 187 -4 187 -10 0 -27 -43 -117 -83 -173 -103 -144 -276 -227
-471 -227 -238 1 -432 112 -527 304 -88 179 -90 413 -5 593 63 131 198 246
336 283 111 31 253 34 359 9z"/>
<path d="M3352 5359 c-320 -49 -634 -282 -880 -651 l-66 -99 17 -32 c10 -18
47 -72 82 -122 231 -323 505 -530 788 -592 107 -24 280 -21 392 6 107 26 262
99 362 169 167 120 378 357 496 558 7 13 -81 149 -171 263 -83 105 -238 252
-335 319 -104 71 -244 137 -347 162 -102 24 -251 33 -338 19z m210 -320 c249
-53 406 -301 342 -544 -56 -219 -282 -366 -499 -326 -189 35 -336 184 -365
371 -45 297 230 560 522 499z"/>
<path d="M3394 4791 c-138 -64 -165 -238 -51 -338 47 -41 98 -57 161 -49 183
21 240 263 88 370 -55 39 -137 46 -198 17z"/>
<path d="M4162 1914 c-97 -48 -142 -131 -142 -260 0 -93 27 -167 77 -216 51
-49 99 -68 175 -68 107 1 184 52 229 155 30 67 31 191 2 255 -63 141 -210 199
-341 134z"/>
<path d="M2834 1921 c-53 -24 -108 -90 -125 -149 -8 -26 -14 -85 -13 -132 2
-176 85 -274 234 -274 167 0 268 146 240 344 -15 108 -66 182 -147 217 -46 19
-140 16 -189 -6z"/>
<path d="M5595 1961 c-43 -11 -87 -35 -111 -63 -28 -30 -54 -82 -54 -108 0
-20 5 -20 221 -20 l221 0 -7 38 c-20 111 -146 183 -270 153z"/>
</g>
</svg>
